<svg width="238" height="300" viewBox="0 0 238 300" fill="none" xmlns="http://www.w3.org/2000/svg">
<path d="M28.0016 0.000350664C48.7876 0.000664535 69.3452 -0.00174092 89.9027 0.00288125C98.1578 0.00473569 103.826 5.33676 103.862 13.6122C103.97 39.0422 103.967 64.473 103.898 89.9032C103.877 97.7617 97.8987 103.493 90.0128 103.525C81.1047 103.562 72.1963 103.523 63.2881 103.536C55.797 103.547 50.576 107.935 49.7667 115.32C49.3339 119.269 50.7892 122.851 53.7127 125.624C63.045 134.478 72.4332 143.272 81.7947 152.095C88.6637 158.569 95.5167 165.06 102.397 171.522C103.535 172.591 103.971 173.819 103.969 175.378C103.94 201.113 103.974 226.848 103.936 252.583C103.924 261.221 98.5191 266.902 89.8872 266.941C64.6097 267.056 39.331 267.045 14.0533 266.941C5.45394 266.905 0.00117066 261.146 0.000884657 252.581C-0.0017154 173.168 0.00158899 93.7548 0.00852521 14.3417C0.00928499 5.65623 5.62742 0.0317145 14.2967 0.00813761C18.7889 -0.00407593 23.281 0.00242121 28.0016 0.000350664Z" fill="#FFC800"/>
<path d="M144.477 196.811C145.774 196.391 146.923 196.464 148.062 196.463C156.97 196.458 165.877 196.469 174.785 196.458C180.678 196.45 185.046 193.628 187.141 188.395C189.312 182.976 188.1 178.131 184.004 174.199C171.154 161.863 158.189 149.648 145.26 137.394C142.222 134.514 139.18 131.636 136.085 128.818C134.594 127.461 133.878 125.984 133.884 123.861C133.955 98.2801 133.92 72.6992 133.932 47.1182C133.936 38.5472 139.516 32.8956 148.057 32.8867C173.486 32.86 198.914 32.8634 224.343 32.8866C232.227 32.8938 237.835 38.5342 237.837 46.4564C237.851 126.397 237.853 206.337 237.844 286.278C237.843 294.293 232.059 299.975 223.882 299.983C198.682 300.008 173.481 300.001 148.281 299.988C139.863 299.983 134.01 294.505 133.97 286.105C133.849 260.829 133.873 235.553 133.937 210.276C133.954 203.619 137.785 198.874 144.477 196.811Z" fill="#FFC800"/>
</svg>
